<?xml version="1.0" encoding="UTF-8" standalone="no"?>
<!-- Created with Inkscape (http://www.inkscape.org/) -->

<svg
   xmlns:dc="http://purl.org/dc/elements/1.1/"
   xmlns:cc="http://creativecommons.org/ns#"
   xmlns:rdf="http://www.w3.org/1999/02/22-rdf-syntax-ns#"
   xmlns:svg="http://www.w3.org/2000/svg"
   xmlns="http://www.w3.org/2000/svg"
   xmlns:sodipodi="http://sodipodi.sourceforge.net/DTD/sodipodi-0.dtd"
   xmlns:inkscape="http://www.inkscape.org/namespaces/inkscape"
   id="svg3344"
   version="1.1"
   inkscape:version="0.91 r13725"
   width="320"
   height="320"
   viewBox="0 0 320 320"
   sodipodi:docname="ji.svg">
  <metadata
     id="metadata3350">
    <rdf:RDF>
      <cc:Work
         rdf:about="">
        <dc:format>image/svg+xml</dc:format>
        <dc:type
           rdf:resource="http://purl.org/dc/dcmitype/StillImage" />
        <dc:title></dc:title>
      </cc:Work>
    </rdf:RDF>
  </metadata>
  <defs
     id="defs3348">
    <marker
       style="overflow:visible"
       id="DistanceStart"
       refX="0.0"
       refY="0.0"
       orient="auto"
       inkscape:stockid="DistanceStart"
       inkscape:isstock="true">
      <g
         id="g2300"
         style="stroke:none;stroke-opacity:1;fill:#ffffff;fill-opacity:1">
        <path
           style="fill:#ffffff;stroke:none;stroke-width:1.15;stroke-linecap:square;stroke-opacity:1;fill-opacity:1"
           d="M 0,0 L 2,0"
           id="path2306" />
        <path
           style="fill:#ffffff;fill-rule:evenodd;stroke:none;stroke-opacity:1;fill-opacity:1"
           d="M 0,0 L 13,4 L 9,0 13,-4 L 0,0 z "
           id="path2302" />
        <path
           style="fill:#ffffff;stroke:none;stroke-width:1;stroke-linecap:square;stroke-opacity:1;fill-opacity:1"
           d="M 0,-4 L 0,40"
           id="path2304" />
      </g>
    </marker>
    <marker
       inkscape:stockid="Scissors"
       orient="auto"
       refY="0.0"
       refX="0.0"
       id="Scissors"
       style="overflow:visible"
       inkscape:isstock="true">
      <path
         id="schere"
         d="M 9.0898857,-3.6061018 C 8.1198849,-4.7769976 6.3697607,-4.7358294 5.0623558,-4.2327734 L -3.1500488,-1.1548705 C -5.5383421,-2.4615840 -7.8983361,-2.0874077 -7.8983361,-2.7236578 C -7.8983361,-3.2209742 -7.4416699,-3.1119800 -7.5100293,-4.4068519 C -7.5756648,-5.6501286 -8.8736064,-6.5699315 -10.100428,-6.4884954 C -11.327699,-6.4958500 -12.599867,-5.5553341 -12.610769,-4.2584343 C -12.702194,-2.9520479 -11.603560,-1.7387447 -10.304005,-1.6532027 C -8.7816644,-1.4265411 -6.0857470,-2.3487593 -4.8210600,-0.082342643 C -5.7633447,1.6559151 -7.4350844,1.6607341 -8.9465707,1.5737277 C -10.201445,1.5014928 -11.708664,1.8611256 -12.307219,3.0945882 C -12.885586,4.2766744 -12.318421,5.9591904 -10.990470,6.3210002 C -9.6502788,6.8128279 -7.8098011,6.1912892 -7.4910978,4.6502760 C -7.2454393,3.4624530 -8.0864637,2.9043186 -7.7636052,2.4731223 C -7.5199917,2.1477623 -5.9728246,2.3362771 -3.2164999,1.0982979 L 5.6763468,4.2330688 C 6.8000164,4.5467672 8.1730685,4.5362646 9.1684433,3.4313614 L -0.051640930,-0.053722219 L 9.0898857,-3.6061018 z M -9.2179159,-5.5066058 C -7.9233569,-4.7838060 -8.0290767,-2.8230356 -9.3743431,-2.4433169 C -10.590861,-2.0196559 -12.145370,-3.2022863 -11.757521,-4.5207817 C -11.530373,-5.6026336 -10.104134,-6.0014137 -9.2179159,-5.5066058 z M -9.1616516,2.5107591 C -7.8108215,3.0096239 -8.0402087,5.2951947 -9.4138723,5.6023681 C -10.324932,5.9187072 -11.627422,5.4635705 -11.719569,4.3902287 C -11.897178,3.0851737 -10.363484,1.9060805 -9.1616516,2.5107591 z "
         style="fill:#ffffff;stroke:none;stroke-opacity:1;fill-opacity:1" />
    </marker>
    <marker
       inkscape:stockid="Arrow1Lstart"
       orient="auto"
       refY="0.0"
       refX="0.0"
       id="marker8250"
       style="overflow:visible"
       inkscape:isstock="true">
      <path
         id="path8252"
         d="M 0.0,0.0 L 5.0,-5.0 L -12.5,0.0 L 5.0,5.0 L 0.0,0.0 z "
         style="fill-rule:evenodd;stroke:none;stroke-width:1pt;stroke-opacity:1;fill:#ffffff;fill-opacity:1"
         transform="scale(0.8) translate(12.5,0)" />
    </marker>
    <marker
       inkscape:stockid="Arrow1Sstart"
       orient="auto"
       refY="0.0"
       refX="0.0"
       id="Arrow1Sstart"
       style="overflow:visible"
       inkscape:isstock="true">
      <path
         id="path7960"
         d="M 0.0,0.0 L 5.0,-5.0 L -12.5,0.0 L 5.0,5.0 L 0.0,0.0 z "
         style="fill-rule:evenodd;stroke:none;stroke-width:1pt;stroke-opacity:1;fill:#ffffff;fill-opacity:1"
         transform="scale(0.2) translate(6,0)" />
    </marker>
    <marker
       inkscape:stockid="Arrow1Lstart"
       orient="auto"
       refY="0.0"
       refX="0.0"
       id="Arrow1Lstart"
       style="overflow:visible"
       inkscape:isstock="true">
      <path
         id="path7948"
         d="M 0.0,0.0 L 5.0,-5.0 L -12.5,0.0 L 5.0,5.0 L 0.0,0.0 z "
         style="fill-rule:evenodd;stroke:none;stroke-width:1pt;stroke-opacity:1;fill:#ffffff;fill-opacity:1"
         transform="scale(0.8) translate(12.5,0)" />
    </marker>
  </defs>
  <sodipodi:namedview
     pagecolor="#ffffff"
     bordercolor="#666666"
     borderopacity="1"
     objecttolerance="10"
     gridtolerance="10"
     guidetolerance="10"
     inkscape:pageopacity="0"
     inkscape:pageshadow="2"
     inkscape:window-width="1440"
     inkscape:window-height="897"
     id="namedview3346"
     showgrid="false"
     inkscape:zoom="2.18125"
     inkscape:cx="160"
     inkscape:cy="151.08388"
     inkscape:window-x="-8"
     inkscape:window-y="-8"
     inkscape:window-maximized="1"
     inkscape:current-layer="g7928"
     inkscape:snap-global="false"
     inkscape:snap-nodes="false"
     inkscape:snap-others="false"
     inkscape:snap-to-guides="true"
     inkscape:snap-grids="true" />
  <g
     id="g7928"
     transform="matrix(1.4826461,0,0,1.2233257,-92.315907,-31.17097)">
    <path
       style="fill:#ffffff;fill-opacity:1;stroke:none;stroke-width:0;stroke-miterlimit:4;stroke-dasharray:none;marker-start:url(#DistanceStart);marker-mid:url(#DistanceStart);marker-end:url(#DistanceStart)"
       d="M 148.40694,283.39228 C 131.58263,275.75616 114.91242,257.536 88.795922,218.23876 79.290752,203.93644 76.881572,199.40489 76.881572,195.82844 l 0,-4.48293 10.9375,-3.41066 c 6.01563,-1.87586 21.004548,-5.63851 33.308728,-8.36142 12.30417,-2.72293 24.56193,-5.54067 27.23945,-6.26165 l 4.86822,-1.31088 -5.66242,-7.12534 -5.66244,-7.12532 4.28289,-3.75 c 4.09308,-3.58381 18.78499,-24.19475 17.88678,-25.09295 -0.23702,-0.23703 -4.90681,1.00092 -10.37732,2.75099 -12.84079,4.10788 -20.96078,3.674 -28.34313,-1.51452 -2.85126,-2.00393 -5.17386,-4.20602 -5.16134,-4.89352 0.0382,-2.09563 14.1511,-9.13161 26.13698,-13.03054 6.23089,-2.02688 16.18635,-4.36475 22.12325,-5.19528 16.9239,-2.36754 24.39686,0.65163 29.02406,11.72609 3.37851,8.08593 -0.45972,17.34893 -15.27427,36.86215 -6.47185,8.52449 -6.77118,9.21994 -4.63933,10.77879 1.25339,0.9165 9.3458,2.63356 17.98314,3.81571 36.93605,5.05524 52.18391,9.75574 59.37708,18.30432 4.07399,4.84168 4.24794,10.4522 0.38967,12.56845 -3.1322,1.718 -18.25551,2.0733 -24.06099,0.56527 -3.57441,-0.92847 -3.6367,-1.05545 -1.34125,-2.73391 1.32398,-0.96813 2.14346,-2.02399 1.82108,-2.34638 -1.06293,-1.06293 -22.57134,-4.43967 -28.27882,-4.43967 -4.86237,0 -5.4688,0.28644 -4.63123,2.1875 0.53006,1.20312 1.20987,8.40277 1.51067,15.99921 0.51229,12.9367 0.29689,14.56011 -3.39991,25.625 -4.73336,14.1674 -10.6592,25.31211 -19.10829,35.93691 -11.00699,13.84137 -18.14699,16.63648 -29.42339,11.51842 z m 8.12513,-39.70454 c 4.08937,-3.95313 8.91287,-9.4375 10.71891,-12.1875 6.52265,-9.93188 8.71581,-26.78472 4.64761,-35.71345 l -1.41096,-3.09673 -13.36552,0.99688 c -7.35105,0.54827 -22.64679,2.41001 -33.99054,4.1372 -11.34375,1.72719 -22.73438,3.45096 -25.312498,3.8306 -2.57812,0.37964 -4.6875,0.98025 -4.6875,1.33469 0,0.35445 3.69129,5.07007 8.202858,10.47916 12.43421,14.90784 27.27886,28.09936 37.21381,33.06961 4.76808,2.38538 9.09209,4.33704 9.60892,4.33704 0.51683,0 4.28555,-3.23438 8.37491,-7.1875 z M 76.233332,125.38328 c -5.24936,-2.28729 -11.57101,-9.86537 -12.54043,-15.03285 -1.10008,-5.86392 1.41779,-19.926165 6.3548,-35.491398 4.00456,-12.625421 6.8975,-17.733791 10.04289,-17.733791 0.86434,0 4.20819,3.694932 7.43076,8.210961 4.14017,5.801925 6.42862,7.992464 7.79996,7.466232 1.0674,-0.409603 8.850808,-2.119668 17.296448,-3.800145 21.36351,-4.250815 32.80396,-8.380246 37.07631,-13.382684 4.84796,-5.676424 4.40352,-7.836523 -2.30131,-11.185079 -3.15634,-1.576355 -7.79697,-4.703626 -10.3125,-6.949492 -4.37645,-3.907295 -4.47213,-4.162575 -2.21858,-5.919458 4.41689,-3.443436 15.25595,-5.048247 23.07633,-3.416636 17.27586,3.60437 22.8053,7.003487 27.64037,16.991422 2.80878,5.802163 2.20563,10.03461 -2.10949,14.802755 -1.09376,1.208598 -1.75773,2.418969 -1.4755,2.689712 0.28225,0.270743 9.79443,1.145192 21.13818,1.943218 11.34375,0.798028 24.84375,2.310192 30,3.360365 11.61555,2.365739 26.84647,8.142792 32.53721,12.341287 5.70901,4.211972 11.21279,12.608391 11.21279,17.105931 0,3.07377 -0.81675,3.99097 -5.3125,5.96583 -2.92188,1.2835 -9.71258,2.93938 -15.09045,3.67971 -12.0659,1.66104 -37.05653,1.73205 -39.59705,0.11252 -2.93894,-1.87352 -0.1966,-5.0292 8.80025,-10.126743 4.35396,-2.466912 8.75429,-5.747393 9.77851,-7.289956 2.20994,-3.328341 1.87288,-3.637804 -8.57876,-7.876266 -6.38049,-2.587486 -8.85304,-2.790064 -34.375,-2.816358 -21.29066,-0.02194 -29.75794,0.45404 -37.5,2.108003 -5.5,1.174983 -16.08086,2.749805 -23.51304,3.499604 -15.73852,1.587789 -28.74933,5.259006 -32.723918,9.233596 -2.21147,2.211467 -2.99741,4.891794 -3.7282,12.71443 -1.63736,17.5269 -7.73482,23.6202 -18.80808,18.79528 z"
       id="path7930"
       inkscape:connector-curvature="0" />
  </g>
  <g
     id="g3372"
     style="image-rendering:optimizeQuality" />
</svg>
